<svg width="32" height="32" viewBox="0 0 32 32" fill="none" xmlns="http://www.w3.org/2000/svg">
<path d="M16.082 10C16.6343 10.0032 17.0794 10.4536 17.0762 11.0059L17 24.0059C16.9966 24.558 16.5463 25.0032 15.9941 25C15.4419 24.9968 14.9969 24.5463 15 23.9941L15.0762 10.9941C15.0794 10.4419 15.5299 9.99687 16.082 10Z" fill="#4E4E4E"/>
<path d="M21.4424 10.0049C21.9914 10.0619 22.3906 10.5535 22.334 11.1025L20.9951 24.0342C20.9381 24.5832 20.4465 24.9824 19.8975 24.9258C19.3482 24.8689 18.9482 24.3773 19.0049 23.8281L20.3447 10.8975C20.4016 10.3481 20.893 9.948 21.4424 10.0049Z" fill="#4E4E4E"/>
<path d="M10.3682 10.0088C10.9155 9.93605 11.4182 10.3209 11.4912 10.8682L13.208 23.7539C13.2809 24.3011 12.8966 24.8036 12.3496 24.877C11.8023 24.9499 11.2987 24.5658 11.2256 24.0186L9.50879 11.1318C9.43605 10.5845 9.82088 10.0818 10.3682 10.0088Z" fill="#4E4E4E"/>
<path fill-rule="evenodd" clip-rule="evenodd" d="M16 2C17.8565 2 19.6374 2.63259 20.9502 3.75781C21.6951 4.39644 22.2539 5.16453 22.5986 6H28C28.5523 6 29 6.44772 29 7C29 7.55228 28.5523 8 28 8H26.9092L25.168 26.2842C25.0213 27.8238 23.7282 28.9999 22.1816 29H9.81836C8.27178 28.9999 6.97866 27.8238 6.83203 26.2842L5.09082 8H4C3.44772 8 3 7.55228 3 7C3 6.44772 3.44772 6 4 6H9.40234C9.70908 5.25637 10.1842 4.56562 10.8105 3.97266L11.0498 3.75781C12.3626 2.63259 14.1435 2 16 2ZM8.82324 26.0947C8.87211 26.6079 9.3029 26.9999 9.81836 27H22.1816C22.6971 26.9999 23.1279 26.6079 23.1768 26.0947L24.9004 8H7.09961L8.82324 26.0947ZM16 4C14.5829 4 13.2739 4.48482 12.3516 5.27539C12.088 5.50129 11.8651 5.7455 11.6797 6H20.3203C20.1349 5.7455 19.912 5.50129 19.6484 5.27539C18.7261 4.48482 17.4171 4 16 4Z" fill="#4E4E4E"/>
</svg>
