<svg width="16" height="16" viewBox="0 0 16 16" fill="none" xmlns="http://www.w3.org/2000/svg">
<path fill-rule="evenodd" clip-rule="evenodd" d="M10.322 6.19799L7.722 8.79799L5.122 6.19799C4.99781 6.07628 4.8306 6.0085 4.65671 6.00938C4.48283 6.01025 4.31631 6.07972 4.19336 6.20268C4.0704 6.32563 4.00093 6.49215 4.00005 6.66603C3.99918 6.83992 4.06696 7.00713 4.18866 7.13132L7.25067 10.1933C7.37568 10.3183 7.54522 10.3885 7.722 10.3885C7.89877 10.3885 8.06831 10.3183 8.19333 10.1933L11.2553 7.13132C11.3176 7.07026 11.3672 6.99746 11.4012 6.91712C11.4352 6.83678 11.4529 6.7505 11.4534 6.66327C11.4538 6.57604 11.437 6.48959 11.4038 6.40891C11.3706 6.32823 11.3218 6.25493 11.2601 6.19325C11.1984 6.13156 11.1251 6.08272 11.0444 6.04954C10.9637 6.01636 10.8773 5.99951 10.79 5.99995C10.7028 6.00039 10.6165 6.01812 10.5362 6.05211C10.4559 6.0861 10.3831 6.13568 10.322 6.19799Z" fill="#7E7E7E"/>
</svg>
