<svg width="32" height="32" viewBox="0 0 32 32" fill="none" xmlns="http://www.w3.org/2000/svg">
<path fill-rule="evenodd" clip-rule="evenodd" d="M16 12C18.2091 12 20 13.7909 20 16C20 18.2091 18.2091 20 16 20C13.7909 20 12 18.2091 12 16C12 13.7909 13.7909 12 16 12ZM16 14C14.8954 14 14 14.8954 14 16C14 17.1046 14.8954 18 16 18C17.1046 18 18 17.1046 18 16C18 14.8954 17.1046 14 16 14Z" fill="#7E7E7E"/>
<path fill-rule="evenodd" clip-rule="evenodd" d="M16 8C20.9706 8 29 11.0294 29 16C29 20.9706 20.9706 24 16 24C11.0294 24 3 20.9706 3 16C3 11.0294 11.0294 8 16 8ZM16 10C13.8456 10 10.9139 10.6756 8.56543 11.9072C6.10563 13.1973 5 14.6835 5 16C5 17.3165 6.10563 18.8027 8.56543 20.0928C10.9139 21.3244 13.8456 22 16 22C18.1544 22 21.0861 21.3244 23.4346 20.0928C25.8944 18.8027 27 17.3165 27 16C27 14.6835 25.8944 13.1973 23.4346 11.9072C21.0861 10.6756 18.1544 10 16 10Z" fill="#7E7E7E"/>
</svg>
