<svg width="32" height="32" viewBox="0 0 32 32" fill="none" xmlns="http://www.w3.org/2000/svg">
<path fill-rule="evenodd" clip-rule="evenodd" d="M26.0596 5C26.1802 5 26.2966 5.00896 26.4082 5.02734C27.872 5.22647 29 6.4816 29 8V24C29 25.6569 27.6569 27 26 27H6C4.34315 27 3 25.6569 3 24V8C3 6.48193 4.12752 5.22689 5.59082 5.02734C5.70274 5.00886 5.81948 5 5.94043 5H26.0596ZM17.8291 15.8545C16.7507 16.684 15.2493 16.684 14.1709 15.8545L5 8.7998V24C5 24.5523 5.44772 25 6 25H26C26.5523 25 27 24.5523 27 24V8.7998L17.8291 15.8545ZM5.94336 7.00195L15.3906 14.2695C15.75 14.5457 16.25 14.5457 16.6094 14.2695L26.0557 7.00195C26.0372 7.00094 26.0187 7 26 7H6C5.98098 7 5.96211 7.00091 5.94336 7.00195Z" fill="#4E4E4E"/>
</svg>
