<svg width="32" height="32" viewBox="0 0 32 32" fill="none" xmlns="http://www.w3.org/2000/svg">
<g clip-path="url(#clip0_3433_34)">
<path d="M8.12439 20.4215C8.71018 19.8357 9.65992 19.8357 10.2457 20.4215C10.8315 21.0073 10.8315 21.9571 10.2457 22.5428C9.65992 23.1285 8.71015 23.1286 8.12439 22.5428C7.53864 21.9571 7.5387 21.0073 8.12439 20.4215Z" fill="#4E4E4E"/>
<path fill-rule="evenodd" clip-rule="evenodd" d="M4.78428 16.1202C5.74051 14.7781 7.13999 13.8156 8.73551 13.4036C10.0951 13.0527 11.5229 13.1215 12.8352 13.5894L20.8496 5.57504C21.0389 5.38577 21.2958 5.27954 21.5636 5.27949H25.7924C26.3499 5.27967 26.8018 5.73149 26.802 6.28905V10.5124C26.8016 11.0698 26.3499 11.5217 25.7924 11.5219H23.9735V13.3408C23.9732 13.8982 23.5214 14.3502 22.964 14.3503H21.1451V16.1692C21.1448 16.7267 20.693 17.1786 20.1355 17.1788H17.7311L17.0785 17.8313C17.5567 19.1723 17.6166 20.633 17.2408 22.0167C16.8088 23.6068 15.8291 24.9934 14.4752 25.9327C13.1212 26.872 11.4792 27.3038 9.8383 27.1515C8.19756 26.9991 6.6624 26.273 5.50451 25.1006C4.3467 23.928 3.63994 22.3838 3.50817 20.7412C3.37648 19.0987 3.82824 17.4622 4.78428 16.1202ZM9.23615 15.3406C8.09654 15.6348 7.09699 16.3218 6.41394 17.2803C5.73092 18.239 5.40766 19.4084 5.50174 20.5817C5.59593 21.7549 6.10075 22.8579 6.9277 23.6953C7.75466 24.5326 8.8509 25.0517 10.0227 25.1607C11.1946 25.2695 12.368 24.9607 13.3352 24.2899C14.3022 23.619 15.0022 22.6283 15.3108 21.4925C15.6193 20.3566 15.5169 19.1479 15.0221 18.0799L15.0277 18.0772C14.817 17.697 14.8729 17.2087 15.1955 16.886L16.9025 15.179L19.1453 15.179V13.3601L19.1501 13.2572C19.2018 12.7481 19.6321 12.3508 20.1549 12.3506H21.9737V10.5317L21.9786 10.4288C22.0302 9.91964 22.4606 9.52239 22.9833 9.52213H24.8022L24.8022 7.27928H21.9737L13.7812 15.4718C13.4739 15.779 13.0166 15.8436 12.6453 15.6672L12.6439 15.6713C11.5824 15.1634 10.3756 15.0465 9.23615 15.3406Z" fill="#4E4E4E"/>
</g>
<defs>
<clipPath id="clip0_3433_34">
<rect width="32" height="32" fill="white"/>
</clipPath>
</defs>
</svg>
