<svg width="32" height="32" viewBox="0 0 32 32" fill="none" xmlns="http://www.w3.org/2000/svg">
<path d="M11.7574 7.51471C10.9763 6.73366 9.70997 6.73366 8.92893 7.51471L8.83985 7.60379C7.84212 8.60152 7.68877 10.1313 8.46834 11.2567C9.91961 13.3518 12.0079 16.1936 13.8904 18.1303C15.7756 20.0696 18.6447 22.1605 20.7605 23.5945C21.8713 24.3472 23.37 24.1863 24.3541 23.2023L24.4853 23.0711C25.2663 22.29 25.2663 21.0237 24.4853 20.2426L22.9682 18.7255C22.4325 18.1899 21.6401 18.0027 20.9214 18.2422L19.0238 18.8747C18.3052 19.1142 17.5128 18.927 16.9771 18.3913L13.6087 15.0229C13.073 14.4872 12.8858 13.6948 13.1253 12.9761L13.7578 11.0786C13.9973 10.3599 13.8101 9.56744 13.2745 9.03181L11.7574 7.51471ZM14.6887 7.6176C15.76 8.68889 16.1344 10.2738 15.6554 11.7111L15.0229 13.6087L18.3913 16.9771L20.2889 16.3446C21.7262 15.8655 23.3111 16.24 24.3824 17.3113L25.8995 18.8284C27.4616 20.3905 27.4616 22.9232 25.8995 24.4853L25.7683 24.6165C24.1417 26.2431 21.5847 26.5688 19.6391 25.2504C17.5099 23.8074 14.4932 21.6201 12.4555 19.5238C10.4498 17.4603 8.28338 14.5019 6.82418 12.3954C5.47038 10.441 5.77418 7.84103 7.42563 6.18958L7.51471 6.1005C9.07681 4.5384 11.6095 4.5384 13.1716 6.1005L14.6887 7.6176Z" fill="#4E4E4E"/>
</svg>
