<svg width="24" height="24" viewBox="0 0 24 24" fill="none" xmlns="http://www.w3.org/2000/svg">
<g clip-path="url(#clip0_60_139)">
<mask id="mask0_60_139" style="mask-type:luminance" maskUnits="userSpaceOnUse" x="0" y="0" width="24" height="24">
<path d="M24 0H0V24H24V0Z" fill="white"/>
</mask>
<g mask="url(#mask0_60_139)">
<path fill-rule="evenodd" clip-rule="evenodd" d="M17.9885 20.6259C16.29 21.8074 14.2258 22.5 12 22.5C9.77415 22.5 7.71004 21.8074 6.01147 20.6259C6.20458 17.4865 8.81191 15 12 15C15.1881 15 17.7954 17.4865 17.9885 20.6259ZM19.3497 19.4988C18.843 17.0047 17.0987 14.9602 14.7857 14.0344C15.8298 13.2103 16.5 11.9334 16.5 10.5C16.5 8.01473 14.4853 6 12 6C9.51473 6 7.5 8.01473 7.5 10.5C7.5 11.9334 8.1702 13.2103 9.21433 14.0344C6.90136 14.9602 5.15698 17.0047 4.65028 19.4988C2.70618 17.593 1.5 14.9374 1.5 12C1.5 6.20102 6.20102 1.5 12 1.5C17.799 1.5 22.5 6.20102 22.5 12C22.5 14.9374 21.2939 17.593 19.3497 19.4988ZM24 12C24 18.6275 18.6275 24 12 24C5.37258 24 0 18.6275 0 12C0 5.37258 5.37258 0 12 0C18.6275 0 24 5.37258 24 12ZM12 13.5C13.6569 13.5 15 12.1569 15 10.5C15 8.84314 13.6569 7.5 12 7.5C10.3431 7.5 9 8.84314 9 10.5C9 12.1569 10.3431 13.5 12 13.5Z" fill="#4E4E4E"/>
</g>
</g>
<defs>
<clipPath id="clip0_60_139">
<rect width="24" height="24" fill="white"/>
</clipPath>
</defs>
</svg>
