<svg width="32" height="32" viewBox="0 0 32 32" fill="none" xmlns="http://www.w3.org/2000/svg">
<path d="M8.53418 11.9238C6.09631 13.2101 5 14.6891 5 16C5 17.3165 6.10563 18.8027 8.56543 20.0928C10.9139 21.3244 13.8456 22 16 22C17.365 22 19.0415 21.7269 20.6846 21.2148L22.584 22.668C20.3641 23.5328 17.9477 24 16 24C11.0294 24 3 20.9706 3 16C3 13.783 4.5977 11.9526 6.80859 10.6045L8.53418 11.9238Z" fill="#7E7E7E"/>
<path d="M6.70605 8.89258C7.04154 8.45407 7.66878 8.37074 8.10742 8.70605L25.1074 21.7051C25.5461 22.0405 25.6293 22.6687 25.2939 23.1074C24.9584 23.5459 24.3312 23.6294 23.8926 23.2939L6.8916 10.2949C6.45318 9.95937 6.37065 9.33118 6.70605 8.89258Z" fill="#7E7E7E"/>
<path d="M16 8C20.9706 8 29 11.0294 29 16C29 18.2235 27.3918 20.0561 25.1709 21.4053C25.1146 21.3409 25.051 21.2805 24.9805 21.2266L23.4707 20.0723C25.9048 18.7867 27 17.3099 27 16C27 14.6835 25.8944 13.1973 23.4346 11.9072C21.0861 10.6756 18.1544 10 16 10C14.6365 10 12.9617 10.2713 11.3203 10.7822L9.4209 9.3291C11.6393 8.46563 14.0539 8 16 8Z" fill="#7E7E7E"/>
<path d="M14.0049 16.1104C14.0622 17.1635 14.9325 18 16 18C16.1431 18 16.2824 17.9836 16.417 17.9551L18.2148 19.3291C17.5805 19.752 16.8196 20 16 20C13.7909 20 12 18.2091 12 16C12 15.5576 12.0725 15.1322 12.2051 14.7344L14.0049 16.1104Z" fill="#7E7E7E"/>
<path d="M16 12C18.2091 12 20 13.7909 20 16C20 16.4419 19.9262 16.8663 19.7939 17.2637L17.9932 15.8867C17.9343 14.8349 17.0665 14 16 14C15.857 14 15.7175 14.0154 15.583 14.0439L13.7852 12.6689C14.4193 12.2464 15.1808 12 16 12Z" fill="#7E7E7E"/>
</svg>
