<svg width="32" height="32" viewBox="0 0 32 32" fill="none" xmlns="http://www.w3.org/2000/svg">
<path d="M19.4789 10.9385C19.8074 10.4948 20.4334 10.4012 20.8773 10.7295C21.3213 11.0579 21.4147 11.6839 21.0863 12.1279L16.432 18.4219C16.0179 18.9818 15.2158 19.0721 14.6869 18.6192L11.349 15.7588C10.9301 15.3994 10.8816 14.7688 11.2406 14.3496C11.6 13.9303 12.2315 13.8818 12.6508 14.2412L15.3344 16.542L19.4789 10.9385Z" fill="#4E4E4E"/>
<path fill-rule="evenodd" clip-rule="evenodd" d="M15.643 3.06544C15.8792 3.02256 16.1215 3.02252 16.3578 3.06544L25.2436 4.68067C26.244 4.86278 26.9488 5.76661 26.8813 6.78126L26.5404 11.8975L26.5023 12.3828C26.0455 17.3949 23.7139 22.0578 19.9643 25.4326L17.3383 27.7959L17.1908 27.916C16.4851 28.4399 15.5158 28.4397 14.81 27.916L14.6625 27.7959L12.0365 25.4326C8.28674 22.0578 5.95534 17.3949 5.49844 12.3828L5.46035 11.8975L5.11953 6.78126C5.05617 5.82995 5.67105 4.97565 6.57266 4.72267L6.75723 4.68067L15.643 3.06544ZM7.11465 6.64845L7.45547 11.7637C7.76724 16.44 9.89081 20.8111 13.3744 23.9463L16.0004 26.3096L18.6264 23.9463C22.1099 20.8111 24.2336 16.4399 24.5453 11.7637L24.8861 6.64845L16.0004 5.03321L7.11465 6.64845Z" fill="#4E4E4E"/>
</svg>
