<svg width="32" height="32" viewBox="0 0 32 32" fill="none" xmlns="http://www.w3.org/2000/svg">
<path d="M16 5.32519L5 14.8838V27H12.333V19.7012C12.333 18.5967 13.2286 17.7013 14.333 17.7012H17.667C18.7714 17.7013 19.667 18.5967 19.667 19.7012V27H27V14.8838L16 5.32519ZM29 27C29 28.1046 28.1046 29 27 29H19.667C18.5624 29 17.667 28.1046 17.667 27V19.7012H14.333V27C14.333 28.1046 13.4376 29 12.333 29H5C3.89543 29 3 28.1046 3 27V14.8838C3.00009 14.3048 3.25145 13.7538 3.68848 13.374L14.6885 3.81542C15.4408 3.1617 16.5592 3.1617 17.3115 3.81542L28.3115 13.374C28.7486 13.7538 28.9999 14.3048 29 14.8838V27Z" fill="#4E4E4E"/>
</svg>
