<svg width="28" height="28" viewBox="0 0 28 28" fill="none" xmlns="http://www.w3.org/2000/svg">
<path d="M16.2041 0.0107422C17.2128 0.113005 18 0.964349 18 2V2.68848C18.4002 2.8299 18.7905 2.99145 19.1699 3.17285L19.6572 2.68652L19.8096 2.54883C20.595 1.90865 21.7532 1.95439 22.4854 2.68652L25.3135 5.51465C26.0456 6.24679 26.0914 7.40497 25.4512 8.19043L25.3135 8.34277L24.8252 8.8291C25.0068 9.20901 25.1691 9.59945 25.3105 10H26C27.1046 10 28 10.8954 28 12V16L27.9893 16.2041C27.887 17.2128 27.0357 18 26 18H25.3105C25.1692 18.4 25.0065 18.7896 24.8252 19.1689L25.3135 19.6572C26.0943 20.4382 26.0946 21.7043 25.3135 22.4854L22.4854 25.3135C21.7043 26.0946 20.4382 26.0943 19.6572 25.3135L19.1689 24.8252C18.7897 25.0065 18.3999 25.1682 18 25.3096V26L17.9893 26.2041C17.887 27.2128 17.0357 28 16 28H12C10.8954 28 10 27.1046 10 26V25.3105C9.59945 25.1691 9.20901 25.0068 8.8291 24.8252L8.34277 25.3135C7.56181 26.0943 6.29575 26.0946 5.51465 25.3135L2.68652 22.4854C1.90543 21.7043 1.90572 20.4382 2.68652 19.6572L3.17285 19.1689C2.99175 18.7897 2.83055 18.3997 2.68945 18H2C0.964351 18 0.113005 17.2128 0.0107422 16.2041L0 16V12C1.28852e-07 10.8954 0.895431 10 2 10H2.68945C2.83064 9.59978 2.99149 9.20897 3.17285 8.8291L2.68652 8.34277C1.90569 7.5618 1.90543 6.29574 2.68652 5.51465L5.51465 2.68652C6.29574 1.90543 7.5618 1.90569 8.34277 2.68652L8.8291 3.17285C9.20897 2.9913 9.59948 2.82895 10 2.6875V2C10 0.895432 10.8954 3.22131e-08 12 0H16L16.2041 0.0107422ZM12 3.03906C11.9999 3.71734 11.5508 4.28376 10.9434 4.47852C10.4181 4.64683 9.91175 4.85682 9.42871 5.10547C8.86143 5.39749 8.14302 5.3149 7.66309 4.83496L6.92871 4.10059L4.10059 6.92871L4.83496 7.66309C5.31493 8.14306 5.39721 8.86157 5.10547 9.42871C4.8573 9.91119 4.64771 10.4171 4.47949 10.9424C4.28488 11.5502 3.71834 11.9999 3.04004 12H2V16H3.04004C3.67605 16.0001 4.21342 16.3951 4.43848 16.9453L4.47949 17.0566L4.61328 17.4473C4.75485 17.8335 4.91931 18.2085 5.10547 18.5703C5.39719 19.1373 5.31543 19.856 4.83594 20.3359L4.10059 21.0713L6.92871 23.8994L7.66309 23.165L7.75586 23.0791C8.2004 22.7025 8.80875 22.6286 9.32031 22.8428L9.42871 22.8936L9.79492 23.0723C10.1658 23.2442 10.5492 23.3942 10.9434 23.5205C11.5508 23.7153 11.9999 24.2817 12 24.96V26H16V24.96C16.0001 24.2816 16.4492 23.7153 17.0566 23.5205C17.5815 23.3522 18.0874 23.1422 18.5703 22.8936L18.6787 22.8428C19.1901 22.6285 19.7986 22.7019 20.2432 23.0781L20.3359 23.1641L21.0713 23.8994L23.8994 21.0713L23.1641 20.3359C22.6842 19.856 22.6014 19.1377 22.8936 18.5703L23.0723 18.2041C23.2443 17.8334 23.3943 17.4504 23.5205 17.0566C23.7153 16.4492 24.2816 16.0001 24.96 16H26V12H24.96C24.2817 11.9999 23.7153 11.5508 23.5205 10.9434C23.3522 10.4181 23.1422 9.91171 22.8936 9.42871C22.6015 8.86122 22.6847 8.14298 23.165 7.66309L23.8994 6.92871L21.0713 4.10059L20.3359 4.83594C19.856 5.3154 19.1374 5.39746 18.5703 5.10547C18.0873 4.85681 17.5814 4.64676 17.0566 4.47852C16.4493 4.28375 16.0001 3.71741 16 3.03906V2H12V3.03906ZM14 8C17.3137 8 20 10.6863 20 14C20 17.3137 17.3137 20 14 20C10.6863 20 8 17.3137 8 14C8 10.6863 10.6863 8 14 8ZM14 10C11.7909 10 10 11.7909 10 14C10 16.2091 11.7909 18 14 18C16.2091 18 18 16.2091 18 14C18 11.7909 16.2091 10 14 10Z" fill="#4E4E4E"/>
</svg>
