<svg width="32" height="32" viewBox="0 0 32 32" fill="none" xmlns="http://www.w3.org/2000/svg">
<path d="M13.333 3C13.8853 3 14.333 3.44772 14.333 4C14.333 4.55228 13.8853 5 13.333 5H6C5.44771 5 5 5.44772 5 6V26C5 26.5523 5.44772 27 6 27H26C26.5523 27 27 26.5523 27 26V6C27 5.48232 26.6067 5.05621 26.1025 5.00488L26 5H18.667C18.1147 5 17.667 4.55228 17.667 4C17.667 3.44772 18.1147 3 18.667 3H26L26.1543 3.00391C27.7394 3.08421 29 4.39489 29 6V26C29 27.6569 27.6569 29 26 29H6C4.34315 29 3 27.6569 3 26V6C3 4.34315 4.34315 3 6 3H13.333Z" fill="#4E4E4E"/>
<path d="M19 21C19.5523 21 20 21.4477 20 22C20 22.5523 19.5523 23 19 23H9C8.44772 23 8 22.5523 8 22C8 21.4477 8.44772 21 9 21H19Z" fill="#4E4E4E"/>
<path d="M21 15C21.5523 15 22 15.4477 22 16C22 16.5523 21.5523 17 21 17H9C8.44772 17 8 16.5523 8 16C8 15.4477 8.44772 15 9 15H21Z" fill="#4E4E4E"/>
<path d="M23 9C23.5523 9 24 9.44772 24 10C24 10.5523 23.5523 11 23 11H9C8.44772 11 8 10.5523 8 10C8 9.44772 8.44772 9 9 9H23Z" fill="#4E4E4E"/>
<path d="M16 2C16.5523 2 17 2.44772 17 3V5C17 5.55228 16.5523 6 16 6C15.4477 6 15 5.55228 15 5V3C15 2.44772 15.4477 2 16 2Z" fill="#4E4E4E"/>
</svg>
