<svg width="32" height="32" viewBox="0 0 32 32" fill="none" xmlns="http://www.w3.org/2000/svg">
<path d="M14 4C14.5523 4 15 4.44772 15 5C15 5.55228 14.5523 6 14 6H8C6.89543 6 6 6.89543 6 8V24C6 25.1046 6.89543 26 8 26H14C14.5523 26 15 26.4477 15 27C15 27.5523 14.5523 28 14 28H8C5.79086 28 4 26.2091 4 24V8C4 5.79086 5.79086 4 8 4H14Z" fill="#4E4E4E"/>
<path d="M18.2197 11.375C18.5648 10.9442 19.1939 10.8748 19.625 11.2197L24.1367 14.8291C24.8402 15.3921 24.8843 16.4304 24.2686 17.0527L24.1367 17.1709L19.625 20.7812C19.1938 21.1261 18.5647 21.0552 18.2197 20.624C17.875 20.1929 17.944 19.5638 18.375 19.2188L21.1494 17H12C11.4477 17 11 16.5523 11 16C11 15.4477 11.4477 15 12 15H21.1494L18.375 12.7812C17.944 12.4362 17.8748 11.8061 18.2197 11.375Z" fill="#4E4E4E"/>
</svg>
