<svg width="64" height="24" viewBox="0 0 64 24" fill="none" xmlns="http://www.w3.org/2000/svg">
<path d="M7.29746 20.09C6.46946 20.09 5.71946 19.886 5.04746 19.478C4.38746 19.07 3.86546 18.482 3.48146 17.714C3.09746 16.934 2.90546 16.016 2.90546 14.96C2.90546 13.136 3.29546 11.45 4.07546 9.902C4.85546 8.342 6.00746 7.094 7.53146 6.158C9.05546 5.21 10.8855 4.736 13.0215 4.736C13.5735 4.736 14.1615 4.778 14.7855 4.862C15.4215 4.946 15.9975 5.072 16.5135 5.24C16.8495 5.336 17.0175 5.576 17.0175 5.96C17.0175 6.272 16.8975 6.566 16.6575 6.842C16.4295 7.118 16.1595 7.256 15.8475 7.256C15.7515 7.256 15.6795 7.25 15.6315 7.238C15.0075 7.094 14.4735 6.992 14.0295 6.932C13.5855 6.86 13.1175 6.824 12.6255 6.824C11.1015 6.824 9.80546 7.196 8.73746 7.94C7.66946 8.672 6.87146 9.644 6.34346 10.856C5.81546 12.068 5.55146 13.376 5.55146 14.78C5.55146 15.8 5.74946 16.592 6.14546 17.156C6.55346 17.708 7.08146 17.984 7.72946 17.984C8.46146 17.984 9.10346 17.684 9.65546 17.084C10.2075 16.484 10.7115 15.512 11.1675 14.168C11.6235 12.824 12.0735 11 12.5175 8.696C12.5895 8.36 12.7335 8.132 12.9495 8.012C13.1655 7.892 13.4535 7.832 13.8135 7.832C14.6655 7.832 15.0915 8.108 15.0915 8.66C15.0915 8.756 15.0735 8.876 15.0375 9.02C14.7255 10.184 14.4375 11.474 14.1735 12.89C13.9215 14.294 13.7955 15.362 13.7955 16.094C13.7955 16.742 13.8915 17.216 14.0835 17.516C14.2755 17.804 14.5695 17.948 14.9655 17.948C15.3495 17.948 15.7155 17.822 16.0635 17.57C16.4115 17.306 16.8495 16.862 17.3775 16.238C17.5215 16.07 17.6835 15.986 17.8635 15.986C18.0195 15.986 18.1395 16.058 18.2235 16.202C18.3195 16.346 18.3675 16.544 18.3675 16.796C18.3675 17.264 18.2535 17.636 18.0255 17.912C17.4375 18.62 16.8615 19.16 16.2975 19.532C15.7335 19.904 15.0435 20.09 14.2275 20.09C13.3875 20.09 12.7095 19.85 12.1935 19.37C11.6775 18.878 11.3535 18.188 11.2215 17.3C10.3335 19.16 9.02546 20.09 7.29746 20.09ZM20.3499 20.09C19.1739 20.09 18.2559 19.76 17.5959 19.1C16.9479 18.428 16.6239 17.546 16.6239 16.454C16.6239 15.482 16.8159 14.63 17.1999 13.898C17.5839 13.166 18.0819 12.602 18.6939 12.206C19.3059 11.81 19.9479 11.612 20.6199 11.612C21.2799 11.612 21.7899 11.81 22.1499 12.206C22.5219 12.59 22.7079 13.088 22.7079 13.7C22.7079 14.204 22.5939 14.63 22.3659 14.978C22.1499 15.326 21.8619 15.5 21.5019 15.5C21.2739 15.5 21.0879 15.446 20.9439 15.338C20.8119 15.23 20.7459 15.08 20.7459 14.888C20.7459 14.804 20.7579 14.708 20.7819 14.6C20.8059 14.492 20.8239 14.414 20.8359 14.366C20.8959 14.186 20.9259 14.018 20.9259 13.862C20.9259 13.706 20.8839 13.586 20.7999 13.502C20.7279 13.418 20.6199 13.376 20.4759 13.376C20.1999 13.376 19.9419 13.502 19.7019 13.754C19.4619 13.994 19.2699 14.324 19.1259 14.744C18.9819 15.164 18.9099 15.626 18.9099 16.13C18.9099 17.522 19.5159 18.218 20.7279 18.218C21.2199 18.218 21.7479 18.056 22.3119 17.732C22.8879 17.396 23.4519 16.898 24.0039 16.238C24.1479 16.07 24.3099 15.986 24.4899 15.986C24.6459 15.986 24.7659 16.058 24.8499 16.202C24.9459 16.346 24.9939 16.544 24.9939 16.796C24.9939 17.252 24.8799 17.624 24.6519 17.912C24.0879 18.608 23.4099 19.148 22.6179 19.532C21.8379 19.904 21.0819 20.09 20.3499 20.09ZM26.9768 20.09C25.8008 20.09 24.8828 19.76 24.2228 19.1C23.5748 18.428 23.2508 17.546 23.2508 16.454C23.2508 15.482 23.4428 14.63 23.8268 13.898C24.2108 13.166 24.7088 12.602 25.3208 12.206C25.9328 11.81 26.5748 11.612 27.2468 11.612C27.9068 11.612 28.4168 11.81 28.7768 12.206C29.1488 12.59 29.3348 13.088 29.3348 13.7C29.3348 14.204 29.2208 14.63 28.9928 14.978C28.7768 15.326 28.4888 15.5 28.1288 15.5C27.9008 15.5 27.7148 15.446 27.5708 15.338C27.4388 15.23 27.3728 15.08 27.3728 14.888C27.3728 14.804 27.3848 14.708 27.4088 14.6C27.4328 14.492 27.4508 14.414 27.4628 14.366C27.5228 14.186 27.5528 14.018 27.5528 13.862C27.5528 13.706 27.5108 13.586 27.4268 13.502C27.3548 13.418 27.2468 13.376 27.1028 13.376C26.8268 13.376 26.5688 13.502 26.3288 13.754C26.0888 13.994 25.8968 14.324 25.7528 14.744C25.6088 15.164 25.5368 15.626 25.5368 16.13C25.5368 17.522 26.1428 18.218 27.3548 18.218C27.8468 18.218 28.3748 18.056 28.9388 17.732C29.5148 17.396 30.0788 16.898 30.6308 16.238C30.7748 16.07 30.9368 15.986 31.1168 15.986C31.2728 15.986 31.3928 16.058 31.4768 16.202C31.5728 16.346 31.6208 16.544 31.6208 16.796C31.6208 17.252 31.5068 17.624 31.2788 17.912C30.7148 18.608 30.0368 19.148 29.2448 19.532C28.4648 19.904 27.7088 20.09 26.9768 20.09ZM39.3458 14.474C39.5018 14.474 39.6218 14.552 39.7058 14.708C39.7898 14.864 39.8318 15.062 39.8318 15.302C39.8318 15.878 39.6578 16.22 39.3098 16.328C38.5898 16.58 37.7978 16.724 36.9338 16.76C36.7058 17.768 36.2558 18.578 35.5838 19.19C34.9118 19.79 34.1498 20.09 33.2978 20.09C32.5778 20.09 31.9598 19.916 31.4438 19.568C30.9398 19.22 30.5558 18.758 30.2918 18.182C30.0278 17.606 29.8958 16.982 29.8958 16.31C29.8958 15.398 30.0698 14.588 30.4178 13.88C30.7658 13.16 31.2458 12.602 31.8578 12.206C32.4698 11.798 33.1478 11.594 33.8918 11.594C34.8038 11.594 35.5358 11.912 36.0878 12.548C36.6518 13.172 36.9818 13.946 37.0778 14.87C37.6418 14.834 38.3138 14.714 39.0938 14.51C39.1898 14.486 39.2738 14.474 39.3458 14.474ZM33.4418 18.182C33.8258 18.182 34.1558 18.026 34.4318 17.714C34.7198 17.402 34.9118 16.952 35.0078 16.364C34.6358 16.112 34.3478 15.782 34.1438 15.374C33.9518 14.966 33.8558 14.534 33.8558 14.078C33.8558 13.886 33.8738 13.694 33.9098 13.502H33.8198C33.3398 13.502 32.9378 13.736 32.6138 14.204C32.3018 14.66 32.1458 15.308 32.1458 16.148C32.1458 16.808 32.2718 17.312 32.5238 17.66C32.7878 18.008 33.0938 18.182 33.4418 18.182ZM40.1229 20.09C39.5829 20.09 39.1389 19.844 38.7909 19.352C38.4549 18.848 38.2869 18.224 38.2869 17.48C38.2869 16.58 38.3469 15.758 38.4669 15.014C38.5869 14.258 38.7849 13.46 39.0609 12.62C39.1809 12.26 39.3489 12.002 39.5649 11.846C39.7809 11.69 40.1229 11.612 40.5909 11.612C40.8549 11.612 41.0349 11.654 41.1309 11.738C41.2389 11.822 41.2929 11.948 41.2929 12.116C41.2929 12.212 41.2269 12.536 41.0949 13.088C40.9749 13.532 40.8789 13.934 40.8069 14.294C40.5669 15.554 40.4469 16.394 40.4469 16.814C40.4469 17.066 40.4769 17.246 40.5369 17.354C40.5969 17.45 40.6929 17.498 40.8249 17.498C41.0049 17.498 41.2269 17.318 41.4909 16.958C41.7669 16.598 42.0549 16.052 42.3549 15.32C42.6669 14.588 42.9669 13.688 43.2549 12.62C43.3509 12.26 43.4949 12.002 43.6869 11.846C43.8909 11.69 44.1909 11.612 44.5869 11.612C44.8629 11.612 45.0549 11.648 45.1629 11.72C45.2709 11.78 45.3249 11.9 45.3249 12.08C45.3249 12.38 45.1749 13.202 44.8749 14.546C44.5389 16.082 44.3709 17.03 44.3709 17.39C44.3709 17.618 44.4189 17.798 44.5149 17.93C44.6109 18.05 44.7369 18.11 44.8929 18.11C45.1329 18.11 45.4149 17.966 45.7389 17.678C46.0749 17.378 46.5189 16.898 47.0709 16.238C47.2149 16.07 47.3769 15.986 47.5569 15.986C47.7129 15.986 47.8329 16.058 47.9169 16.202C48.0129 16.346 48.0609 16.544 48.0609 16.796C48.0609 17.276 47.9469 17.648 47.7189 17.912C47.2029 18.548 46.6449 19.07 46.0449 19.478C45.4569 19.886 44.7849 20.09 44.0289 20.09C43.4529 20.09 43.0269 19.868 42.7509 19.424C42.4869 18.98 42.3549 18.356 42.3549 17.552C42.1509 18.368 41.8449 18.998 41.4369 19.442C41.0289 19.874 40.5909 20.09 40.1229 20.09ZM47.8793 20.09C47.4233 20.09 47.0993 19.85 46.9073 19.37C46.7273 18.89 46.6373 18.122 46.6373 17.066C46.6373 15.506 46.8593 14.024 47.3033 12.62C47.4113 12.272 47.5853 12.02 47.8253 11.864C48.0773 11.696 48.4253 11.612 48.8693 11.612C49.1093 11.612 49.2773 11.642 49.3733 11.702C49.4693 11.762 49.5173 11.876 49.5173 12.044C49.5173 12.236 49.4273 12.668 49.2473 13.34C49.1273 13.82 49.0313 14.24 48.9593 14.6C48.8873 14.96 48.8273 15.404 48.7793 15.932C49.1753 14.9 49.6193 14.06 50.1113 13.412C50.6033 12.764 51.0833 12.302 51.5513 12.026C52.0313 11.75 52.4693 11.612 52.8653 11.612C53.6453 11.612 54.0353 12.002 54.0353 12.782C54.0353 13.25 53.9033 14.096 53.6393 15.32C53.4113 16.364 53.2973 17.054 53.2973 17.39C53.2973 17.87 53.4713 18.11 53.8193 18.11C54.0593 18.11 54.3413 17.966 54.6653 17.678C55.0013 17.378 55.4453 16.898 55.9973 16.238C56.1413 16.07 56.3033 15.986 56.4833 15.986C56.6393 15.986 56.7593 16.058 56.8433 16.202C56.9393 16.346 56.9873 16.544 56.9873 16.796C56.9873 17.276 56.8733 17.648 56.6453 17.912C56.1293 18.548 55.5713 19.07 54.9713 19.478C54.3833 19.886 53.7113 20.09 52.9553 20.09C52.3433 20.09 51.8813 19.916 51.5693 19.568C51.2573 19.208 51.1013 18.692 51.1013 18.02C51.1013 17.684 51.1853 17.084 51.3533 16.22C51.5093 15.464 51.5873 14.942 51.5873 14.654C51.5873 14.462 51.5213 14.366 51.3893 14.366C51.2333 14.366 51.0113 14.57 50.7233 14.978C50.4473 15.374 50.1593 15.902 49.8593 16.562C49.5713 17.222 49.3373 17.918 49.1573 18.65C49.0253 19.214 48.8693 19.598 48.6893 19.802C48.5213 19.994 48.2513 20.09 47.8793 20.09ZM58.501 13.322C58.477 13.922 58.465 14.39 58.465 14.726C58.465 15.59 58.507 16.268 58.591 16.76C58.687 17.24 58.837 17.588 59.041 17.804C59.257 18.008 59.551 18.11 59.923 18.11C60.115 18.11 60.343 18.05 60.607 17.93C60.871 17.81 61.111 17.654 61.327 17.462C61.459 17.342 61.591 17.282 61.723 17.282C61.867 17.282 61.981 17.366 62.065 17.534C62.161 17.69 62.209 17.882 62.209 18.11C62.209 18.338 62.161 18.56 62.065 18.776C61.981 18.992 61.849 19.172 61.669 19.316C61.045 19.832 60.337 20.09 59.545 20.09C58.405 20.09 57.571 19.616 57.043 18.668C56.515 17.708 56.251 16.46 56.251 14.924C56.251 14.396 56.269 13.862 56.305 13.322H55.603C55.243 13.322 54.997 13.256 54.865 13.124C54.745 12.992 54.685 12.782 54.685 12.494C54.685 11.822 54.955 11.486 55.495 11.486H56.521C56.725 10.166 57.037 8.96 57.457 7.868C57.877 6.776 58.381 5.906 58.969 5.258C59.569 4.61 60.211 4.286 60.895 4.286C61.399 4.286 61.795 4.508 62.083 4.952C62.371 5.396 62.515 5.954 62.515 6.626C62.515 8.486 61.735 10.106 60.175 11.486H62.191C62.383 11.486 62.521 11.528 62.605 11.612C62.689 11.696 62.731 11.852 62.731 12.08C62.731 12.908 62.053 13.322 60.697 13.322H58.501ZM60.409 6.014C60.229 6.014 60.025 6.242 59.797 6.698C59.581 7.142 59.371 7.766 59.167 8.57C58.975 9.362 58.813 10.244 58.681 11.216C59.389 10.604 59.917 9.92 60.265 9.164C60.625 8.396 60.805 7.7 60.805 7.076C60.805 6.368 60.673 6.014 60.409 6.014Z" fill="#4E4E4E"/>
</svg>
